<svg xmlns="http://www.w3.org/2000/svg" viewBox="0 0 30 30">
  <path d="M14.984375 3 A 1.0001 1.0001 0 0 0 14.292969 3.2929688L11.292969 6.2929688L12 7L12 11L18 11L18 7L18.707031 6.2929688L15.707031 3.2929688 A 1.0001 1.0001 0 0 0 14.984375 3 z M 6.984375 4 A 1.0001 1.0001 0 0 0 6.2929688 4.2929688L3.2929688 7.2929688L4 8L4 11L6 11L6 8L8 8L8 11L10 11L10 8L10.707031 7.2929688L7.7070312 4.2929688 A 1.0001 1.0001 0 0 0 6.984375 4 z M 22.984375 4 A 1.0001 1.0001 0 0 0 22.292969 4.2929688L19.292969 7.2929688L20 8L20 11L22 11L22 8L24 8L24 11L26 11L26 8L26.707031 7.2929688L23.707031 4.2929688 A 1.0001 1.0001 0 0 0 22.984375 4 z M 14 7L16 7L16 9L14 9L14 7 z M 25.980469 12.992188 A 1.0001 1.0001 0 0 0 25.880859 13L21.105469 13 A 1.0001 1.0001 0 0 0 20.962891 12.996094 A 1.0001 1.0001 0 0 0 20.923828 13L15.123047 13 A 1.0001 1.0001 0 0 0 15.009766 12.994141 A 1.0001 1.0001 0 0 0 14.910156 13L9.0996094 13 A 1.0001 1.0001 0 0 0 9.0253906 12.996094 A 1.0001 1.0001 0 0 0 8.9257812 13L4 13 A 1.0001 1.0001 0 1 0 4 15L4.8847656 15C4.1164884 15.670671 3.4298149 16.546493 3.0507812 17.683594 A 1.0005644 1.0005644 0 0 0 4.9492188 18.316406C5.6892884 16.0962 8.920342 15.073518 9.1601562 15L11.197266 15C8.6863619 16.796811 5.6240903 19.944778 5.0078125 24.875 A 1.0001 1.0001 0 1 0 6.9921875 25.125C7.8593912 18.187373 14.407454 15.32212 15.197266 15L17.605469 15C15.376647 16.800441 12.622486 19.957622 12.007812 24.875 A 1.0001 1.0001 0 1 0 13.992188 25.125C14.854622 18.225507 20.389379 15.392091 21.226562 15L23.328125 15C21.449141 16.928426 19 20.331732 19 25 A 1.0001 1.0001 0 1 0 21 25C21 18.654361 26.370122 14.96225 26.509766 14.867188 A 1.0001 1.0001 0 0 0 27.007812 13.888672 A 1.0001 1.0001 0 0 0 27.007812 13.884766 A 1.0001 1.0001 0 0 0 27.001953 13.853516 A 1.0001 1.0001 0 0 0 26.990234 13.787109 A 1.0001 1.0001 0 0 0 26.966797 13.693359 A 1.0001 1.0001 0 0 0 26.964844 13.689453 A 1.0001 1.0001 0 0 0 26.931641 13.599609 A 1.0001 1.0001 0 0 0 26.929688 13.597656 A 1.0001 1.0001 0 0 0 25.980469 12.992188 z" fill="#4947CD" />
</svg>